PathFileType	4	(X/Y/Z)	\\Move.snu.ac.kr\motion\Animal\091204_091205_Bird\091205_bird\Project 2\Capture day 2\Session 1\pigeon_011.trc
DataRate	CameraRate	NumFrames	NumMarkers	Units	OrigDataRate	OrigDataStartFrame	OrigNumFrames
240.0	240.0	17	14	mm	240.0	93	1439
Frame#	Time	14MarkersBird:Head			14MarkersBird:C_back			14MarkersBird:Spine			14MarkersBird:L-shoulder			14MarkersBird:L-elbow			14MarkersBird:L-wrist			14MarkersBird:L-hand			14MarkersBird:R-shoulder			14MarkersBird:R-elbow			14MarkersBird:R-Wrist			14MarkersBird:R-hand			14MarkersBird:C_Tail			14MarkersBird:L-Tale			14MarkersBird:R-Tale			
		X1	Y1	Z1	X2	Y2	Z2	X3	Y3	Z3	X4	Y4	Z4	X5	Y5	Z5	X6	Y6	Z6	X7	Y7	Z7	X8	Y8	Z8	X9	Y9	Z9	X10	Y10	Z10	X11	Y11	Z11	X12	Y12	Z12	X13	Y13	Z13	X14	Y14	Z14	

710	2.954	-710.66626	998.98248	-977.01147	-712.35840	1004.22650	-1039.55750	-731.19556	997.86993	-1090.87329	-689.38983	992.17139	-1015.63501	-669.74677	996.66272	-1043.24194	-631.22845	981.25171	-1030.07336	-602.46753	982.29620	-1034.70105	-731.23120	1001.71191	-1001.46747	-751.46405	1020.00891	-1013.86652	-778.60156	1015.38562	-980.49945	-812.29077	1029.68884	-961.87012	-757.88861	935.96094	-1193.74988	-660.76508	938.20081	-1139.22900	-842.74207	979.91174	-1109.82288	
711	2.958	-707.11816	994.75439	-963.16309	-709.13422	999.92712	-1025.93469	-728.16229	994.72791	-1076.81714	-686.16357	987.33417	-1001.72729	-664.58942	986.57843	-1027.55359	-631.25543	965.99292	-1009.45422	-603.09723	960.62738	-1010.49097	-727.71216	997.29620	-987.25940	-750.56445	1011.05450	-995.95819	-773.09113	999.53333	-961.75330	-806.55316	1005.83813	-939.40668	-758.36389	928.22223	-1177.11743	-661.50024	930.30029	-1126.92969	-840.04205	975.02814	-1095.87878	
712	2.963	-703.35931	990.57098	-949.21466	-705.89410	996.07495	-1012.07935	-725.32855	991.31812	-1062.85608	-682.86456	982.98242	-987.67621	-660.48077	977.06787	-1011.62128	-633.47028	952.86957	-988.68683	-607.89032	941.44922	-985.77618	-724.07452	992.97382	-973.03625	-748.45074	1002.19946	-978.75897	-765.84167	984.86304	-944.16534	-797.05780	982.49670	-919.44409	-759.34912	921.45154	-1160.31982	-662.37073	923.30017	-1114.97327	-837.28461	971.21216	-1081.53760	
713	2.967	-699.43842	986.35339	-935.12750	-702.58093	992.55530	-998.09155	-722.48438	987.70178	-1048.72363	-679.41113	979.07465	-973.51825	-657.44763	968.39435	-995.95740	-637.01324	942.63690	-968.40637	-615.90894	926.12762	-961.57764	-720.35370	988.79370	-958.78607	-745.47723	993.96436	-962.74255	-757.06647	972.10516	-928.00677	-784.43353	961.12170	-902.30774	-760.48627	915.44061	-1143.47388	-663.01520	917.01038	-1102.97290	-834.53375	967.80450	-1066.56506	
714	2.971	-695.40247	982.05591	-920.87885	-699.17395	989.20148	-983.99384	-719.59924	983.72394	-1034.39233	-675.76172	975.45135	-959.26959	-655.22498	960.80573	-980.96899	-640.59473	935.76099	-949.10297	-625.40015	915.68225	-938.75916	-716.59027	984.75909	-944.45679	-742.10779	986.66406	-947.97156	-746.92365	961.85706	-913.27557	-769.71118	943.26520	-887.66302	-761.26068	909.77448	-1126.64709	-663.15564	911.12018	-1090.58679	-831.80865	964.21234	-1050.83594	
715	2.975	-691.28210	977.68646	-906.47357	-695.70435	985.81616	-969.71350	-716.67383	979.35590	-1019.85388	-671.95142	971.94751	-944.91840	-653.31195	954.46118	-966.88416	-642.82654	932.20233	-931.20398	-634.09259	910.39233	-918.00793	-712.83063	980.72821	-929.98004	-738.63159	980.46503	-934.18054	-736.18744	954.87762	-899.54712	-754.43335	930.21051	-874.65326	-761.24530	904.15887	-1109.92908	-662.65173	905.43378	-1077.65112	-829.07281	959.99359	-1034.39075	
716	2.979	-687.09204	973.27228	-891.90387	-692.24371	982.17249	-955.13068	-713.66516	974.67700	-1005.09363	-668.07056	968.40955	-930.45605	-651.23596	949.42786	-953.75232	-642.69031	931.38617	-915.07043	-639.74152	909.46490	-899.79114	-709.09235	976.56500	-915.32013	-735.22070	975.54340	-920.97449	-726.55688	951.57532	-886.18823	-740.49182	922.50153	-862.31177	-760.23102	898.57086	-1093.43359	-661.49603	899.90356	-1064.15344	-826.23724	954.84265	-1017.42737	
717	2.983	-682.84302	968.82288	-877.12616	-688.82294	978.07294	-940.13916	-710.52191	969.81781	-990.08453	-664.21826	964.66736	-915.87097	-648.69928	945.82831	-941.50562	-639.87085	932.40369	-900.89917	-640.89227	911.09338	-884.30157	-705.29730	972.31873	-900.50720	-731.97296	972.09711	-908.15381	-719.53125	951.53784	-872.81348	-729.60681	919.68866	-849.98505	-758.24976	893.09113	-1077.21069	-659.79199	894.47583	-1050.12537	-823.18439	948.62610	-1000.23907	
718	2.987	-678.54077	964.31970	-862.09778	-685.40784	973.41534	-924.71906	-707.20728	964.89294	-974.81976	-660.46722	960.55353	-901.15826	-645.76501	943.75134	-929.92444	-634.70856	934.38232	-888.59979	-637.39600	913.21887	-871.57214	-701.34998	968.13391	-885.62390	-728.78723	970.13623	-895.77094	-715.29211	953.85217	-859.38727	-722.81342	920.49335	-837.61218	-755.45111	887.70770	-1061.19470	-657.68384	888.99628	-1035.56152	-819.80505	941.41504	-983.10913	
719	2.992	-674.19257	959.72656	-846.82654	-681.95453	968.25824	-908.95013	-703.71259	959.93500	-959.35083	-656.87830	955.96851	-886.29846	-642.85712	943.16077	-918.55188	-627.92621	936.81244	-877.81036	-630.28735	914.53204	-861.71362	-697.29114	963.91565	-870.72913	-725.20386	969.31824	-883.97931	-713.02960	957.66589	-846.02356	-720.21912	923.51416	-825.64893	-752.01953	882.24335	-1045.24011	-655.23163	883.32916	-1020.46710	-816.04370	933.46210	-966.23456	
720	2.996	-669.80115	955.01270	-831.40338	-678.46649	962.73682	-892.97296	-700.06622	954.89722	-943.76587	-653.48401	950.93414	-871.26074	-640.59894	943.71973	-906.73737	-620.52893	939.58557	-868.05756	-621.14551	915.10339	-854.96851	-693.25952	959.32733	-855.86548	-720.48053	969.01886	-872.78088	-711.73041	962.27551	-833.00195	-721.11719	927.90857	-814.75073	-748.10895	876.47748	-1029.23792	-652.32153	877.59882	-1004.97180	-811.95697	925.23438	-949.73596	
721	3.000	-665.37646	950.17786	-815.98535	-674.95612	957.02301	-876.93774	-696.32416	949.72253	-928.14191	-650.23969	945.61176	-856.01996	-639.49988	944.84204	-893.93341	-613.72528	942.79059	-858.81384	-611.68829	916.05963	-851.30511	-689.27710	954.23981	-841.04889	-713.97266	968.56036	-861.91479	-710.30084	967.21063	-820.72839	-724.30957	933.57928	-805.55127	-743.79291	870.34912	-1013.22839	-648.65588	872.26038	-989.35480	-807.73694	917.52789	-933.75812	
722	3.004	-660.95337	945.26971	-800.70105	-671.44897	951.24780	-860.96814	-692.52283	944.37152	-912.52185	-647.02301	940.17969	-840.59119	-639.69238	945.81152	-879.93451	-608.60547	946.39844	-849.40582	-603.61566	918.74030	-849.84229	-685.18207	948.85468	-826.27240	-705.57617	967.33881	-850.94623	-707.67346	971.75403	-809.50879	-728.24908	940.83679	-798.50940	-739.11096	864.00854	-997.39948	-643.87592	867.92084	-973.90857	-803.65973	911.36310	-918.45776	
723	3.008	-656.60089	940.33325	-785.57330	-667.98669	945.45483	-845.16241	-688.68689	938.83228	-896.95447	-643.68451	934.72516	-825.07678	-640.83307	945.88672	-864.85461	-605.65454	949.98572	-839.12231	-598.11005	923.97064	-848.72797	-680.78448	943.44580	-811.52576	-695.84998	964.88336	-839.46088	-703.20563	975.09424	-799.22382	-731.06512	949.95123	-793.78717	-734.13043	857.72980	-982.02252	-637.77606	865.06427	-958.74060	-799.89984	907.43579	-903.81573	
724	3.013	-652.38013	935.35889	-770.54010	-664.60828	939.61877	-829.63110	-684.86871	933.07135	-881.50452	-640.12848	929.24219	-809.68817	-642.18555	944.56384	-848.97186	-604.45203	952.78198	-827.55414	-595.29596	931.73407	-845.87219	-676.07013	938.13470	-796.82239	-685.79059	960.96954	-827.18707	-697.01898	976.78601	-789.31293	-730.77100	960.77911	-790.92529	-728.90802	851.83209	-967.36505	-630.48450	863.79413	-943.66180	-796.38385	905.67206	-889.52570	
725	3.017	-648.30548	930.31329	-755.52631	-661.21771	933.78033	-814.39642	-681.15027	927.01544	-866.20782	-636.35565	923.63782	-794.62067	-642.82819	941.73804	-832.56909	-603.71710	954.17255	-814.92883	-594.33887	941.16400	-839.86688	-671.29712	932.81049	-782.18054	-676.38538	955.70923	-813.97302	-690.00061	977.02966	-779.07709	-725.94830	972.49756	-788.58221	-723.47748	846.58429	-953.59570	-622.49249	863.69263	-928.32202	-792.87653	905.36182	-875.15265	
726	3.021	-644.32953	925.19458	-740.50623	-657.64624	927.91339	-799.43439	-677.60211	920.54034	-851.01172	-632.41162	917.85559	-779.88763	-641.98926	937.71606	-815.92725	-601.93469	953.98010	-801.97083	-593.96002	950.81628	-830.30316	-666.88916	927.25818	-767.50916	-668.34314	949.63605	-799.76270	-683.42834	976.32831	-768.02185	-716.77441	983.71973	-784.85181	-717.85229	842.15845	-940.73462	-614.51910	863.89569	-912.51508	-789.19409	905.50842	-860.36493	
